<svg width="100" height="100" viewBox="0 0 100 100" fill="none" xmlns="http://www.w3.org/2000/svg">
<path d="M79.0383 52.2719L79.1734 51.9C87.1062 49.6055 92.382 43.7797 92.382 36.7735C92.382 27.1954 84.1797 22.9446 71.9211 22.9446H54.3586L52.9672 29.893H55.0086C56.9266 29.893 58.4828 31.4477 58.4828 33.3672C58.4828 35.2868 56.9266 36.8415 55.0086 36.8415H51.5742L50.2039 43.6805H53.5289C55.4484 43.6805 57.0031 45.2352 57.0031 47.1547C57.0031 49.0727 55.4484 50.629 53.5289 50.629H48.8125L47.4453 57.4485H48.2875C50.207 57.4485 51.7617 59.0047 51.7617 60.9227C51.7617 62.8422 50.207 64.3969 48.2875 64.3969H46.0539L44.7476 70.9157H46.9539C48.8734 70.9157 50.4281 72.3766 50.4281 74.1782C50.4281 75.9797 48.8734 77.4407 46.9539 77.4407H43.4414L42.2101 83.5844H63.2859C77.507 83.5844 89.5344 77.8993 89.5344 63.6415C89.5336 57.6688 85.7437 53.8961 79.0383 52.2719ZM68.0398 32.8461H69.6851C76.4094 32.8461 79.3 34.9672 79.3 38.9383C79.3 44.2118 75.7562 47.6047 67.3055 47.6047H65.5148L68.0398 32.8461ZM63.9351 73.6829H61.0516L63.9805 56.5657H67.4305C73.9719 56.5657 77.2258 59.2149 77.2258 64.1461C77.225 70.4149 72.5195 73.6829 63.9351 73.6829Z" fill="white"/>
<path d="M40.8875 29.8571H32.893C30.9742 29.8571 29.4188 28.3017 29.4188 26.3829C29.4188 24.4642 30.9742 22.9087 32.893 22.9087H40.8875C42.8063 22.9087 44.3617 24.4642 44.3617 26.3829C44.3617 28.3017 42.8063 29.8571 40.8875 29.8571Z" fill="white"/>
<path d="M72.4008 29.8571H51.4242C49.5055 29.8571 47.95 28.3017 47.95 26.3829C47.95 24.4642 49.5055 22.9087 51.4242 22.9087H72.4008C74.3195 22.9087 75.875 24.4642 75.875 26.3829C75.875 28.3017 74.3195 29.8571 72.4008 29.8571Z" fill="white"/>
<path d="M56.9203 43.6992H39.9773C38.0586 43.6992 36.5031 42.1437 36.5031 40.225C36.5031 38.3062 38.0586 36.7507 39.9773 36.7507H56.9203C58.8391 36.7507 60.3945 38.3062 60.3945 40.225C60.3945 42.1437 58.8391 43.6992 56.9203 43.6992Z" fill="white"/>
<path d="M38.8586 57.5415H32.2836C30.3649 57.5415 28.8094 55.986 28.8094 54.0672C28.8094 52.1485 30.3649 50.593 32.2836 50.593H38.8586C40.7774 50.593 42.3328 52.1485 42.3328 54.0672C42.3328 55.986 40.7774 57.5415 38.8586 57.5415Z" fill="white"/>
<path d="M51.4242 71.3234H23.6946C21.7758 71.3234 20.2203 69.768 20.2203 67.8492C20.2203 65.9305 21.7758 64.375 23.6946 64.375H51.425C53.3438 64.375 54.8992 65.9305 54.8992 67.8492C54.8992 69.768 53.343 71.3234 51.4242 71.3234Z" fill="white"/>
<path d="M29.9867 83.5625H17.4016C15.4828 83.5625 13.9274 82.007 13.9274 80.0882C13.9274 78.1695 15.4828 76.614 17.4016 76.614H29.9867C31.9055 76.614 33.461 78.1695 33.461 80.0882C33.461 82.007 31.9055 83.5625 29.9867 83.5625Z" fill="white"/>
<path d="M51.4242 83.5625H39.2117C37.293 83.5625 35.7375 82.007 35.7375 80.0882C35.7375 78.1695 37.293 76.614 39.2117 76.614H51.4242C53.343 76.614 54.8984 78.1695 54.8984 80.0882C54.8984 82.007 53.343 83.5625 51.4242 83.5625Z" fill="white"/>
<path d="M55.5148 57.5415H48.3562C46.4375 57.5415 44.882 55.986 44.882 54.0672C44.882 52.1485 46.4375 50.593 48.3562 50.593H55.5148C57.4336 50.593 58.989 52.1485 58.989 54.0672C58.989 55.986 57.4336 57.5415 55.5148 57.5415Z" fill="white"/>
</svg>
