<svg width="70" height="70" viewBox="0 0 70 70" fill="none" xmlns="http://www.w3.org/2000/svg">
<path d="M55.3268 36.5904L55.4214 36.3301C60.9744 34.7239 64.6674 30.6459 64.6674 25.7415C64.6674 19.0368 58.9258 16.0613 50.3448 16.0613H38.051L37.077 20.9252H38.506C39.8486 20.9252 40.938 22.0135 40.938 23.3571C40.938 24.7008 39.8486 25.7891 38.506 25.7891H36.102L35.1427 30.5764H37.4702C38.8139 30.5764 39.9022 31.6647 39.9022 33.0084C39.9022 34.351 38.8139 35.4403 37.4702 35.4403H34.1688L33.2117 40.214H33.8013C35.1449 40.214 36.2332 41.3034 36.2332 42.646C36.2332 43.9896 35.1449 45.0779 33.8013 45.0779H32.2377L31.3234 49.641H32.8677C34.2114 49.641 35.2997 50.6637 35.2997 51.9248C35.2997 53.1859 34.2114 54.2085 32.8677 54.2085H30.409L29.5471 58.5092H44.3002C54.2549 58.5092 62.6741 54.5296 62.6741 44.5491C62.6735 40.3682 60.0206 37.7274 55.3268 36.5904ZM47.6279 22.9924H48.7796C53.4866 22.9924 55.51 24.4771 55.51 27.2569C55.51 30.9483 53.0294 33.3234 47.1138 33.3234H45.8604L47.6279 22.9924ZM44.7546 51.5781H42.7361L44.7863 39.596H47.2013C51.7803 39.596 54.0581 41.4505 54.0581 44.9024C54.0575 49.2905 50.7637 51.5781 44.7546 51.5781Z" fill="#232323"/>
<path d="M28.6213 20.9H23.0251C21.682 20.9 20.5931 19.8112 20.5931 18.4681C20.5931 17.125 21.682 16.0361 23.0251 16.0361H28.6213C29.9644 16.0361 31.0532 17.125 31.0532 18.4681C31.0532 19.8112 29.9644 20.9 28.6213 20.9Z" fill="#232323"/>
<path d="M50.6805 20.9H35.997C34.6538 20.9 33.565 19.8112 33.565 18.4681C33.565 17.125 34.6538 16.0361 35.997 16.0361H50.6805C52.0237 16.0361 53.1125 17.125 53.1125 18.4681C53.1125 19.8112 52.0237 20.9 50.6805 20.9Z" fill="#232323"/>
<path d="M39.8442 30.5895H27.9841C26.641 30.5895 25.5522 29.5007 25.5522 28.1575C25.5522 26.8144 26.641 25.7256 27.9841 25.7256H39.8442C41.1873 25.7256 42.2762 26.8144 42.2762 28.1575C42.2762 29.5007 41.1873 30.5895 39.8442 30.5895Z" fill="#232323"/>
<path d="M27.201 40.2789H22.5985C21.2554 40.2789 20.1666 39.1901 20.1666 37.847C20.1666 36.5039 21.2554 35.415 22.5985 35.415H27.201C28.5441 35.415 29.633 36.5039 29.633 37.847C29.633 39.1901 28.5441 40.2789 27.201 40.2789Z" fill="#232323"/>
<path d="M35.997 49.9264H16.5862C15.2431 49.9264 14.1542 48.8376 14.1542 47.4945C14.1542 46.1513 15.2431 45.0625 16.5862 45.0625H35.9975C37.3406 45.0625 38.4295 46.1513 38.4295 47.4945C38.4295 48.8376 37.3401 49.9264 35.997 49.9264Z" fill="#232323"/>
<path d="M20.9907 58.4938H12.1811C10.838 58.4938 9.74915 57.405 9.74915 56.0618C9.74915 54.7187 10.838 53.6299 12.1811 53.6299H20.9907C22.3338 53.6299 23.4227 54.7187 23.4227 56.0618C23.4227 57.405 22.3338 58.4938 20.9907 58.4938Z" fill="#232323"/>
<path d="M35.9969 58.4938H27.4482C26.1051 58.4938 25.0162 57.405 25.0162 56.0618C25.0162 54.7187 26.1051 53.6299 27.4482 53.6299H35.9969C37.3401 53.6299 38.4289 54.7187 38.4289 56.0618C38.4289 57.405 37.3401 58.4938 35.9969 58.4938Z" fill="#232323"/>
<path d="M38.8604 40.2789H33.8494C32.5062 40.2789 31.4174 39.1901 31.4174 37.847C31.4174 36.5039 32.5062 35.415 33.8494 35.415H38.8604C40.2035 35.415 41.2923 36.5039 41.2923 37.847C41.2923 39.1901 40.2035 40.2789 38.8604 40.2789Z" fill="#232323"/>
</svg>
